PathFileType	4	(X/Y/Z)	Kaydara	
DataRate	CameraRate	NumFrames	NumMarkers	Units	OrigDataRate	OrigDataStartFrame	OrigNumFrames	
120.00	120.00	4	29	mm	120.00	1424	2847	
Frame#	Time	Pelvis			Left_hip			Left_knee			Left_ankle			Left_foot			Left_foot_End			Right_hip			Right_knee			Right_ankle			Right_foot			Right_foot_End			Spine1			Spine2			Spine3			Neck			Head			Head_End			Left_collar			Left_shoulder			Left_elbow			Left_wrist			Left_palm			Left_palm_End			Right_collar			Right_shoulder			Right_elbow			Right_wrist			Right_palm			Right_palm_End			
		X1	Y1	Z1	X2	Y2	Z2	X3	Y3	Z3	X4	Y4	Z4	X5	Y5	Z5	X6	Y6	Z6	X7	Y7	Z7	X8	Y8	Z8	X9	Y9	Z9	X10	Y10	Z10	X11	Y11	Z11	X12	Y12	Z12	X13	Y13	Z13	X14	Y14	Z14	X15	Y15	Z15	X16	Y16	Z16	X17	Y17	Z17	X18	Y18	Z18	X19	Y19	Z19	X20	Y20	Z20	X21	Y21	Z21	X22	Y22	Z22	X23	Y23	Z23	X24	Y24	Z24	X25	Y25	Z25	X26	Y26	Z26	X27	Y27	Z27	X28	Y28	Z28	X29	Y29	Z29	

1424	11.858	764.38004	956.58997	-932.92999	679.96545	898.71206	-926.75557	697.85599	547.44795	-1092.90118	784.80430	255.19907	-791.45199	715.73879	169.54419	-881.49254	715.73879	169.54419	-881.49254	785.84465	858.11329	-889.86109	840.74140	502.15902	-1029.12336	873.33489	120.59042	-852.09416	938.41008	41.19065	-959.40628	938.41008	41.19065	-959.40628	800.88293	1074.38919	-949.94624	839.97163	1205.95290	-964.95219	860.34172	1257.41330	-974.42826	934.51340	1455.99916	-989.01234	965.38507	1530.48435	-1052.66903	965.38507	1530.48435	-1052.66903	824.83440	1387.13333	-994.58597	714.23470	1451.76721	-1027.84243	582.61050	1233.84834	-1061.78791	409.05622	1048.34962	-1141.07246	362.80904	974.01865	-1155.48269	362.80904	974.01865	-1155.48269	965.62423	1347.37673	-944.17130	1083.26745	1352.02669	-909.15649	1006.71577	1101.05107	-907.99970	916.72033	1031.29190	-1151.99986	886.90648	1011.94874	-1234.40859	886.90648	1011.94874	-1234.40859 
1425	11.867	764.41002	956.62003	-932.91000	680.00297	898.72875	-926.75793	698.16417	547.44099	-1092.82415	785.24300	255.21739	-791.38814	716.16546	169.57511	-881.43144	716.16546	169.57511	-881.43144	785.88459	858.13526	-889.86457	840.73665	502.16856	-1029.11271	873.41543	120.59324	-852.11373	938.50432	41.21065	-959.43025	938.50432	41.21065	-959.43025	800.89797	1074.42872	-949.89269	839.96946	1206.00173	-964.86187	860.33274	1257.46736	-974.32417	934.47956	1456.06618	-988.85813	965.33506	1530.57342	-1052.49685	965.33506	1530.57342	-1052.49685	824.80809	1387.18907	-994.44055	714.18449	1451.80564	-1027.65112	582.80224	1233.77285	-1061.80176	409.21545	1048.28700	-1141.04523	362.95401	973.96151	-1155.43794	362.95401	973.96151	-1155.43794	965.60776	1347.43438	-944.05184	1083.25355	1352.08584	-909.04586	1006.68762	1101.11418	-907.97524	916.76049	1031.38979	-1152.01051	886.96878	1012.04421	-1234.42668	886.96878	1012.04421	-1234.42668 
1426	11.875	764.45999	956.64001	-932.89001	680.06035	898.73668	-926.74971	698.19804	547.45628	-1092.83406	785.39202	255.22078	-791.44287	716.29191	169.58281	-881.47295	716.29191	169.58281	-881.47295	785.94963	858.14432	-889.87711	840.77375	502.18530	-1029.15585	873.40611	120.60441	-852.16030	938.49651	41.21677	-959.47217	938.49651	41.21677	-959.47217	800.93253	1074.45841	-949.83850	839.98556	1206.04190	-964.76367	860.34018	1257.51489	-974.20454	934.45031	1456.13472	-988.63799	965.28746	1530.68065	-1052.24030	965.28746	1530.68065	-1052.24030	824.79108	1387.24065	-994.25143	714.14241	1451.84472	-1027.40272	582.84213	1233.78170	-1061.67543	409.25155	1048.28965	-1140.89606	362.98612	973.96442	-1155.27732	362.98612	973.96442	-1155.27732	965.60027	1347.48515	-943.88996	1083.25524	1352.12515	-908.91335	1006.70179	1101.14926	-907.94901	916.88798	1031.45225	-1152.03384	887.12047	1012.11696	-1234.46117	887.12047	1012.11696	-1234.46117 
1427	11.883	764.46999	956.67000	-932.87003	680.07949	898.75077	-926.75396	698.20707	547.48099	-1092.86188	785.44161	255.20359	-791.52307	716.31327	169.57894	-881.54415	716.31327	169.57894	-881.54415	785.97606	858.15797	-889.90277	840.60273	502.16624	-1029.17549	873.20871	120.56783	-852.21286	938.32673	41.20062	-959.52308	938.32673	41.20062	-959.52308	800.92379	1074.50180	-949.76557	839.94309	1206.10731	-964.58437	860.27432	1257.60374	-973.94749	934.26527	1456.29966	-987.93837	965.03925	1531.01159	-1051.37628	965.03925	1531.01159	-1051.37628	824.64435	1387.35532	-993.68125	713.97965	1451.97121	-1026.75596	582.69500	1233.90930	-1061.09548	409.07075	1048.44852	-1140.31556	362.78823	974.13309	-1154.69246	362.78823	974.13309	-1154.69246	965.49101	1347.56399	-943.45306	1083.14971	1352.19575	-908.48789	1006.60091	1101.21784	-907.69590	916.80294	1031.51616	-1151.78523	887.08560	1012.18351	-1234.23127	887.08560	1012.18351	-1234.23127 
